<?xml version="1.0" encoding="UTF-8" standalone="no"?>
<svg
   xmlns:dc="http://purl.org/dc/elements/1.1/"
   xmlns:cc="http://creativecommons.org/ns#"
   xmlns:rdf="http://www.w3.org/1999/02/22-rdf-syntax-ns#"
   xmlns:svg="http://www.w3.org/2000/svg"
   xmlns="http://www.w3.org/2000/svg"
   xmlns:sodipodi="http://sodipodi.sourceforge.net/DTD/sodipodi-0.dtd"
   xmlns:inkscape="http://www.inkscape.org/namespaces/inkscape"
   xml:space="preserve"
   width="340"
   height="174.64258"
   version="1.1"
   style="clip-rule:evenodd;fill-rule:evenodd;image-rendering:optimizeQuality;shape-rendering:geometricPrecision;text-rendering:geometricPrecision"
   viewBox="0 3500 8995.8336 4620.7516"
   id="svg22"
   sodipodi:docname="cod5.svg"
   inkscape:version="1.0.2 (e86c870879, 2021-01-15)"><metadata
   id="metadata26"><rdf:RDF><cc:Work
       rdf:about=""><dc:format>image/svg+xml</dc:format><dc:type
         rdf:resource="http://purl.org/dc/dcmitype/StillImage" /><dc:title></dc:title></cc:Work></rdf:RDF></metadata><sodipodi:namedview
   pagecolor="#ffffff"
   bordercolor="#666666"
   borderopacity="1"
   objecttolerance="10"
   gridtolerance="10"
   guidetolerance="10"
   inkscape:pageopacity="0"
   inkscape:pageshadow="2"
   inkscape:window-width="1895"
   inkscape:window-height="870"
   id="namedview24"
   showgrid="false"
   inkscape:zoom="1.1705808"
   inkscape:cx="316.19594"
   inkscape:cy="240.44893"
   inkscape:window-x="0"
   inkscape:window-y="27"
   inkscape:window-maximized="0"
   inkscape:current-layer="svg22"
   inkscape:document-rotation="0"
   units="px"
   lock-margins="true"
   fit-margin-top="10"
   fit-margin-left="10"
   fit-margin-right="10"
   fit-margin-bottom="10" />
 <defs
   id="defs4">
  <style
   type="text/css"
   id="style2">
   <![CDATA[
    .fil0 {fill:blue}
    .fil1 {fill:lime}
    .fil2 {fill:#9900CC}
    .fil3 {fill:red}
   ]]>
  </style>
 
  
  
  
  
  
 </defs>
 <path
   class="fil0"
   d="m 3018.3078,4230.694 c -33.0176,-1.0211 -65.6953,-1.3615 -99.0545,-1.0211 -44.5911,1.7019 -201.8529,15.6581 -199.1298,-55.1438 l 3.0636,-15.3177 c 26.8911,-86.1195 136.8382,-119.8185 -29.9547,-188.578 -46.2935,-19.062 -108.2451,-33.3586 -158.283,-25.8699 -157.6021,51.3994 -283.5477,283.5478 -395.1968,86.8004 -26.5507,-49.3571 -62.9728,-132.7535 -105.8624,-46.2936 -48.3359,95.991 -73.1846,99.395 -176.3238,121.5205 -126.9668,26.8911 -171.218,28.2527 -258.0183,130.3707 -51.059,60.2497 -78.9713,72.5039 -146.7096,108.5856 -92.2467,49.6974 -178.7066,230.4464 -280.1439,204.9168 -87.1407,-21.7851 -82.7156,-195.0455 -199.81097,-184.1528 -58.5476,13.6157 -53.7821,95.9909 -59.9092,143.3056 -22.8064,151.4752 -112.3299,262.4434 -225.3405,360.4768 -135.8171,116.0741 -48.6763,140.9228 -79.3117,268.9108 -52.761,171.2179 -256.6567,27.5719 -292.398,134.7959 -29.6143,88.1619 78.2904,216.1499 49.357,325.7565 -9.1906,35.7414 -27.2315,68.7595 -45.6127,100.7569 -70.8019,119.8188 -55.8246,155.5594 -48.6763,290.0149 1.3616,87.8218 -18.0409,177.3453 54.463,240.9988 95.6505,84.0776 56.8457,71.8233 96.3314,185.855 39.4856,115.7338 50.0378,118.7972 12.5945,237.5948 -25.87,94.2883 69.0998,101.0964 130.0303,153.858 l 13.6157,11.9135 c 105.8624,101.4369 25.87,214.7885 196.4071,289.3348 199.1302,88.5019 192.6628,139.5609 312.14077,301.5881 142.2846,193.3438 98.0334,-107.2237 278.7823,97.6934 49.3571,59.5683 93.6083,125.6056 141.2634,182.451 101.7776,121.5205 229.0848,176.6642 383.9639,123.9029 54.1225,-18.3809 225.6808,-105.8625 263.4645,-42.8902 16.3389,44.5919 30.9759,69.441 82.7157,80.6736 123.2224,27.5724 127.3071,-167.1336 340.053,-196.0668 80.6733,-11.2326 123.5629,-9.1907 207.9805,-28.9324 38.124,-9.1919 68.4191,-12.9351 107.2242,-14.2972 117.4354,-2.3824 177.3453,12.935 275.3782,-57.8671 75.9074,-54.8035 111.9895,-62.9723 185.855,-103.4797 154.1983,-84.4172 31.997,-186.5352 189.5993,-269.5911 33.6987,-17.7009 72.1632,-27.5724 108.926,-36.0818 206.6184,-41.8685 152.1554,-124.584 138.5396,-295.8027 -8.8502,-141.9433 44.251,-167.1322 173.6008,-201.1721 104.8409,-27.9123 115.7341,-56.1647 79.3114,-157.9422 -38.1239,-105.8625 -55.8238,-164.0697 17.0202,-256.6567 54.8035,-69.4403 93.9481,-106.5436 25.1889,-180.0686 -114.7124,-122.8824 -91.9059,-158.2824 -20.764,-303.9712 66.7176,-137.5193 -73.5253,-162.7084 -118.1168,-278.7826 -24.8488,-64.3344 2.0429,-120.1589 36.0818,-173.6007 64.675,-92.587 135.4771,-157.9426 4.7661,-230.106 -145.6888,-80.3329 -250.8703,-125.2648 -195.0455,-320.6507 24.1674,-84.0772 -4.7658,-84.758 -68.0791,-142.2845 -87.1407,-78.9713 -89.1829,-89.8639 -200.4921,-137.8594 -98.3737,-42.2088 -138.199,-61.6112 -205.9376,-147.7307 -59.569,-75.9078 -125.6056,-81.3541 -220.9155,-86.46 -26.2106,-1.3616 -52.4208,-2.3828 -78.6314,-3.404 z m -217.511,906.1276 c -20.0832,0.6808 -15.9985,-3.404 -37.1029,-17.7005 -34.3797,-23.1468 -150.454,-85.7792 -165.4312,-108.5855 -26.2104,-39.8261 -24.8488,-100.4161 -107.9048,-85.7792 -51.059,8.8503 -72.8442,26.2104 -129.6899,23.4872 -88.5024,-13.2753 -159.9849,-16.3389 -249.8488,-9.531 -58.2074,4.4251 -62.9729,-37.7837 -104.5009,-60.5901 -41.8684,-22.8064 -73.1846,32.6778 -93.2678,60.5901 -50.3782,69.0999 -85.4387,67.7382 -157.6022,105.8624 -61.9516,32.3373 -117.7762,70.121 -171.5583,114.7126 -37.4433,30.9758 -45.6127,21.7851 -88.1619,3.7443 -76.5886,-26.5507 -71.8231,35.4009 -76.2482,97.693 -4.7655,63.6536 -6.1271,78.6309 -38.8049,135.4765 -43.5703,73.1846 -57.8669,118.7974 -90.885,192.6628 -27.5719,61.2708 -58.8881,49.0166 -90.8851,148.4122 -38.8048,120.8395 -8.1694,170.1961 36.7625,282.8663 35.0606,98.0339 -37.4433,78.6318 -48.6763,154.5392 -12.9349,85.4384 124.2437,82.0343 173.6007,121.5205 5.1059,3.7442 53.1014,53.4414 56.8457,65.3548 5.1059,17.0201 -5.7866,88.5029 -13.2753,108.2459 -43.5704,97.3522 -118.7973,95.31 -198.7898,157.2614 -127.988,99.7349 -160.6658,156.5817 -329.50087,201.1732 -9.8714,2.3824 -24.168,-23.8282 -33.0182,-34.3808 -62.6324,-69.4399 -89.1831,-85.4384 -134.4555,-172.239 -79.9924,-153.1766 -358.4343,-186.8753 -171.8987,-414.2583 117.0954,-142.9659 43.23,-111.9892 -40.8472,-215.1288 l -11.9138,-14.6373 c -63.6536,-97.3522 15.9985,-135.8167 40.1665,-237.2536 32.3374,-136.4984 -5.1059,-301.5893 141.9441,-368.6468 88.5023,-40.1664 89.5234,-49.6975 116.0741,-146.3692 19.0621,-67.0575 37.4433,-115.3934 52.761,-185.5145 43.5704,-201.1725 81.0137,-264.8261 281.16507,-324.395 71.4826,-21.1043 115.053,-44.932 178.3662,-83.056 l 9.531,-6.1271 c 95.991,-60.2496 93.9486,-73.525 205.5977,-105.8624 97.693,-28.9334 174.6219,-46.2935 237.9351,-131.3918 77.2693,-104.5009 100.7565,-142.2846 245.4237,-116.4146 162.7081,28.9334 162.3677,62.292 329.1605,-5.1059 131.3919,-53.1014 199.4707,-40.8473 303.631,55.8245 67.7383,65.3556 70.1211,81.0137 165.0909,108.9259 119.1373,35.0605 118.4573,20.764 233.1697,23.8275 155.5594,4.4251 175.643,76.2482 250.5295,190.2801 13.2748,20.0832 -0.6804,44.5914 -9.5314,69.4402 -20.7636,57.8669 -48.6755,125.6052 -74.8861,181.4298 -28.593,51.059 -77.9503,103.4795 -117.4354,147.0499 -90.2046,100.0758 -146.0294,90.2043 -271.6345,92.5871 z m 40.1665,484.0395 c -116.4146,-55.484 -203.215,-133.4342 -308.737,8.8503 -77.6097,104.8411 -72.8442,168.155 -188.2376,260.742 -35.0606,28.2524 -71.1423,55.4836 -106.2028,83.7364 -11.2329,9.5317 -22.8063,18.7221 -34.3798,27.572 -106.8835,88.1614 -128.3283,67.0575 -229.7656,124.9246 -116.4145,66.0358 -115.7337,147.3905 -150.1135,263.1242 202.5342,109.9466 370.3482,188.2375 590.2424,60.9305 46.6339,-27.2318 85.0984,-57.5265 125.6052,-92.9275 62.9727,-56.1653 115.7338,-117.7769 166.7928,-184.4939 41.1876,-54.1225 23.8276,-43.9104 98.0334,-23.8268 76.5885,20.7633 128.6686,31.6565 208.3206,35.7412 54.8035,1.7017 109.6067,1.3612 164.4103,1.3612 -39.4858,133.4339 -105.522,257.3378 -195.3861,363.8804 -26.2102,30.6359 -51.0589,56.5059 -79.9921,84.4178 -72.5041,70.8021 112.6702,154.5391 -54.4632,143.3054 -53.4417,-3.7442 -119.8185,-8.1688 -168.8352,18.0418 -40.5068,21.4444 -81.354,39.8253 -124.2436,56.5049 -55.1437,21.4443 -17.36,50.3779 -41.8684,80.333 -20.0833,23.8268 -74.8866,11.9134 -108.9259,19.062 -19.0621,3.7445 -37.7837,9.1904 -57.5265,13.2755 -36.0817,7.1483 -45.9532,24.1674 -65.0152,28.2525 -49.6974,11.2323 -78.6309,-79.652 -137.8593,-88.1627 -22.1256,-1.3608 -38.1241,5.4472 -66.0364,2.0432 -16.3389,-1.7027 -33.0182,-5.1067 -49.3571,-7.8297 -57.5265,-10.212 -72.5038,-20.4227 -134.1151,-7.1475 -54.8033,14.6367 -98.3736,41.8675 -117.4357,-26.8913 -19.4024,-69.7805 -59.5688,-71.4832 -117.4358,-108.245 -41.8683,-26.5511 -76.2481,-52.0806 -114.7125,-83.3965 -96.6718,33.6983 -169.1756,23.8271 -251.2105,46.9739 -91.9062,36.0821 -185.174,129.0096 -212.0651,225.3412 -2.0424,7.4877 -23.4872,77.6087 -23.1468,77.9492 0,2.0429 17.7005,33.3592 20.0832,38.8051 37.7837,95.6505 26.2103,150.454 123.5629,225.3408 107.9047,78.6307 261.0818,97.012 346.861,180.0686 74.5461,72.1629 221.2557,241.6789 335.628,215.1278 83.7367,-19.4025 109.2663,-100.4153 198.4494,-87.4803 28.9335,4.0837 58.8881,9.8715 87.8215,14.6364 89.8639,12.2539 120.8397,13.6161 133.4343,-82.0344 5.1059,-40.5074 35.4009,-24.8495 69.0999,-19.7431 146.7095,22.1255 194.3647,103.1396 337.3299,-6.127 106.8836,-84.7583 114.3722,-119.138 261.0815,-108.926 149.774,16.6796 206.2789,-12.5945 243.041,-162.3674 27.913,-135.1366 28.2535,-138.2001 172.5795,-185.5145 71.1423,-23.4873 148.0713,-39.8263 207.6407,-87.8218 125.6046,-131.0515 -146.3699,-230.7871 -112.3297,-287.6325 28.9332,-48.3361 190.9604,51.059 279.1217,-108.9261 37.7845,-68.7598 61.9522,-163.3887 90.5452,-238.6163 32.6777,-85.4385 27.2318,-151.8149 8.5104,-239.637 -19.4026,-86.1195 -83.3966,-204.9167 -93.2681,-268.2297 -4.4253,-27.2311 1.3611,-47.3147 8.8499,-72.8442 48.6766,-97.3527 107.2237,-102.799 28.9335,-229.4254 -88.5019,-143.6461 -89.5235,-103.82 -37.4429,-271.2936 66.717,-226.0213 -142.6253,-223.2981 -212.4058,-396.8988 l -5.1057,-12.2542 c -4.4253,-14.9773 -8.1698,-28.2527 -12.935,-42.8896 -4.4253,-13.6158 -27.5724,-63.6536 -39.1452,-68.4191 -16.6796,-6.4674 -69.7805,19.7428 -85.0993,31.3162 -81.3533,66.3767 -131.7312,197.7687 -191.3009,286.9518 -27.2308,38.8048 -53.7819,77.95 -80.6733,117.0953 -32.3372,46.6339 -61.27,94.289 -94.9697,140.5826 -14.9769,20.4235 -28.593,40.5067 -42.5493,61.6111 45.9533,81.3541 35.0605,86.8004 121.1803,129.69 95.3107,47.6551 29.9545,71.4827 39.826,152.8367 -97.0123,3.0636 -233.1694,17.0196 -322.6928,-20.4237 z m -717.89,-314.5236 c 137.1786,-16.3389 244.7429,5.4463 367.2846,68.7595 -39.1452,142.6249 -3.404,93.9487 -101.7776,213.7672 -44.932,54.8033 -45.9532,75.2269 -108.2452,121.5206 -46.9743,30.2946 -87.4812,60.9305 -139.9017,81.6942 -159.6446,54.8035 -156.581,42.8898 -241.6795,191.982 -49.6973,86.4596 -146.3691,179.7277 -254.2739,164.4103 -48.6762,-6.8081 -70.8018,-68.7588 -91.2254,-110.9679 -99.0546,-202.8752 30.9758,-235.2124 113.6914,-402.6861 85.7792,-184.1529 259.0395,-295.8019 456.1273,-328.4798 z"
   id="path6"
   style="stroke-width:0.340394" /><path
   class="fil1"
   d="m 7177.2365,5157.2452 c -1.0217,108.2452 -25.189,169.1755 -19.4026,282.1862 6.8081,122.5417 3.7446,227.7233 -20.0836,348.2229 -32.3375,163.3891 -7.8283,225.6804 30.9761,381.9208 -111.3091,5.7878 -211.0443,5.7878 -322.3528,5.7878 0,-353.3292 -0.3405,-706.3172 -0.3405,-1059.6457 0,-44.5916 8.8509,-90.8851 13.9563,-135.4767 3.7445,-30.6353 19.062,-35.4008 22.466,-76.5885 2.0422,-26.5507 0,-79.3117 -1.7024,-107.224 -2.7229,-45.9531 -14.6363,-88.5023 -26.8906,-132.413 -8.8499,-31.997 -7.4888,-55.8245 -7.8293,-88.5023 0.3405,-63.6536 0.3405,-127.3072 0.3405,-190.9607 0,-123.9033 22.8066,-117.4358 48.3361,-219.2135 13.9563,-59.9093 -9.1908,-42.5492 55.8248,-65.6959 84.0766,-30.295 116.4138,-5.4463 197.0874,9.8714 8.1695,81.6944 29.9551,132.7534 30.6355,220.575 2.3831,275.0379 1.702,552.4586 -1.0209,827.1562 z"
   id="path8"
   style="stroke-width:0.340394" /><path
   class="fil2"
   d="m 4151.1373,5067.3813 c 411.5364,9.1906 775.7573,269.2513 888.0874,670.5752 26.5508,94.2893 -59.9089,123.9039 -42.2091,179.7277 23.4876,72.5041 150.1135,85.0992 112.3301,222.9578 -4.7652,17.7008 -10.5526,29.6142 -18.7215,45.6127 -32.6781,54.8036 -40.1672,43.2307 -60.2494,113.3517 -23.1471,77.9493 -29.2741,82.7154 -102.7991,101.0964 -132.7542,32.678 -53.4414,167.8143 -131.392,250.5297 -90.8853,96.3316 -228.0638,169.8566 -353.6694,208.3211 -101.0964,28.593 -185.174,51.059 -291.377,53.4414 -224.6588,-2.3824 -432.2988,-73.525 -598.0712,-227.7232 -92.2465,-86.1195 -188.9186,-187.2162 -239.9776,-304.9922 -24.1673,-56.1653 -11.5728,-126.2863 -35.7402,-194.706 -41.8685,-117.0948 -53.7829,-78.6303 -26.8916,-211.3838 11.5728,-56.5056 6.4675,-70.1213 5.7864,-123.9033 -1.0213,-63.6534 36.0821,-105.522 52.7617,-166.1123 27.2308,-108.9258 9.531,-110.6277 78.2898,-211.7246 53.4414,-78.6309 115.053,-143.9864 188.578,-203.5553 80.6736,-63.6536 195.7266,-74.2058 294.7807,-116.755 123.9033,-53.4418 135.1366,-83.056 280.484,-84.758 z m 0,394.5161 c 30.2956,0.3404 54.8035,2.7231 84.4181,6.8079 35.7416,5.4463 86.46,-28.9335 108.5855,-12.935 19.4025,14.2965 8.1698,44.2512 43.2303,61.9516 104.841,53.1014 181.4294,130.7111 235.5519,234.8719 18.0407,31.316 27.5717,36.4217 42.8902,73.525 22.466,53.4414 65.0146,62.2917 85.7789,113.6909 31.997,80.6736 -65.0156,141.6041 -95.6505,208.321 -20.7643,44.5915 -28.5929,74.8872 -55.8248,119.8189 -64.6751,106.8831 -158.6232,178.3662 -275.7191,220.2344 -19.7427,6.4675 -35.401,8.8503 -55.8238,17.7002 -12.2543,5.1064 -23.8281,8.851 -36.4226,14.2968 -15.9985,6.8081 -46.6334,13.6161 -63.994,11.2327 -21.785,-4.4246 -25.189,-12.5945 -53.782,-14.2961 -191.6414,-13.6158 -357.7534,-126.9664 -440.129,-300.9077 -12.2543,-25.8701 -27.9123,-36.4227 -42.549,-57.5265 -18.7214,-35.4011 10.8922,-38.4646 -6.8077,-93.9492 -34.7203,-109.2662 -36.0821,-102.4585 11.2324,-206.2778 19.4025,-43.2304 27.2321,-76.929 51.74,-122.2016 4.4253,-7.8293 8.8499,-15.658 13.6161,-23.4873 16.6793,-26.8909 18.7215,-51.3995 24.8484,-81.0138 12.254,-59.5688 36.7629,-3.4038 73.8656,-36.0817 45.9533,-40.5068 89.1829,-67.7382 145.0078,-91.9062 26.8906,-11.9138 40.5063,-26.8911 59.2278,-47.6551 41.1878,-45.2724 44.932,13.6157 87.1411,9.531 20.7647,-2.0423 38.805,-3.4039 59.5684,-3.7443 z"
   id="path10"
   style="stroke-width:0.340394" /><path
   class="fil1"
   d="m 6208.4768,5134.7792 c 163.0485,4.4251 247.8058,108.2452 401.6639,145.0076 141.2635,33.6991 157.6022,28.2528 267.2093,141.9441 106.8828,110.628 176.6636,236.2331 219.2129,383.2831 26.5511,94.6298 -59.9089,123.9039 -42.2091,179.7277 23.4876,72.5048 150.1135,85.0992 112.33,223.298 -4.7648,17.3606 -10.5522,29.6145 -18.7214,45.2725 -32.6781,55.1441 -40.1665,43.2307 -60.2494,113.3513 -23.1471,77.95 -29.2741,83.056 -102.7991,101.0967 -132.7539,33.0183 -53.4414,167.8144 -131.392,250.8704 -90.8854,96.3315 -228.0638,169.8565 -353.6691,207.9805 -101.0967,28.593 -185.174,51.3995 -291.376,53.4414 -85.78,-1.7013 -236.9141,-10.8921 -305.3334,-65.3548 -76.2479,-60.9305 -88.1616,-111.9895 -193.6843,-163.7296 -71.1416,-34.0399 -171.2177,-57.5265 -217.8511,-119.1381 -78.2911,-103.4798 -45.9536,-273.3363 -108.2459,-373.4114 -69.7805,-111.649 -104.841,-71.1423 -75.5672,-217.1706 11.5732,-56.1658 6.4675,-70.122 5.7867,-123.9043 -1.0206,-63.6535 36.0818,-105.1815 52.7614,-166.1117 27.2311,-108.9261 9.531,-110.628 78.2901,-211.7249 53.4424,-78.6309 115.0527,-143.9865 188.5777,-203.5553 80.6736,-63.6536 195.7266,-74.2058 294.7811,-116.755 123.9032,-53.4418 135.1362,-83.056 280.4849,-84.4176 z m 0,394.5161 c 30.2943,0 54.8025,2.3828 84.4168,6.8079 35.7415,5.1059 86.46,-28.9335 108.5855,-12.935 38.4645,37.7837 -21.1039,32.6778 91.2262,84.7581 129.0082,59.5688 277.0798,97.6926 293.4189,266.1881 11.5728,120.1583 80.6732,140.5824 -20.7637,267.2083 -21.7859,27.2322 -35.401,42.5496 -52.0806,73.8655 -20.7643,44.5915 -28.593,74.8872 -55.8248,119.8189 -64.6751,107.2236 -158.6229,178.7064 -275.7188,220.2344 -19.742,6.8081 -35.4007,9.1905 -55.8241,17.7002 -12.254,5.1064 -23.8278,9.1915 -36.4227,14.2968 -70.1209,26.8917 -66.7169,0.6811 -123.5623,-2.0418 -158.6239,-7.4892 -281.5052,-31.317 -404.0473,-141.9447 -66.717,-60.2494 -89.183,-114.7124 -86.1195,-202.8748 1.3622,-47.655 -24.5079,-24.8484 -2.0419,-79.652 21.785,-53.7819 -40.5077,-90.2046 -3.7445,-182.1105 7.1486,-17.6998 15.6579,-35.7415 23.4866,-53.1008 19.4022,-43.2307 27.2318,-76.929 51.7397,-121.8611 4.4256,-8.1698 8.8509,-15.6579 13.6161,-23.4872 16.6796,-27.2312 18.7214,-51.7401 24.8484,-81.0142 12.2543,-59.9089 36.7632,-3.403 73.8655,-36.4218 45.9537,-40.5069 89.183,-67.398 145.0078,-91.9063 26.891,-11.5733 40.5068,-26.891 59.2282,-47.6551 41.1885,-44.9319 44.932,13.9562 87.1411,9.5311 20.7643,-2.0424 38.8047,-3.0636 59.5694,-3.404 z"
   id="path12"
   style="stroke-width:0.340394" /><g
   id="_2349054910368"
   transform="matrix(0.28114025,0,0,0.23915939,1237.1757,2491.5379)">
   <path
   class="fil3"
   d="m 22192,9136 h 996 c 0,-513 -29,-439 -158,-895 -175,-622 129,-1004 152,-1614 4,-113 7,-223 7,-336 0,-316 0,-632 -1,-948 -423,7 -732,134 -1135,167 49,350 138,507 139,893 2,911 0,1822 0,2733 z"
   id="path14" />
   <path
   class="fil3"
   d="m 23197,5327 c -424,4 -739,136 -1146,170 38,303 133,504 141,827 1004,-6 2009,-5 3014,-2 454,1 619,-228 1024,-291 19,-213 66,-416 82,-636 -290,-32 -590,-68 -881,-70 -745,-2 -1489,-4 -2234,2 z"
   id="path16" />
   <path
   class="fil3"
   d="m 23374,9136 c 275,-268 569,-391 953,-401 736,0 1333,597 1333,1333 0,737 -597,1333 -1333,1333 -224,0 -435,-55 -621,-153 -185,-98 -345,-238 -466,-408 -591,1 -473,-23 -938,-288 -362,-207 -212,-93 -84,110 241,377 425,1060 739,1300 380,290 897,429 1370,435 1286,0 2329,-1042 2329,-2329 -7,-475 -149,-1100 -537,-1409 -204,-163 -399,-281 -607,-461 -845,-714 -1063,-409 -1957,-135 -563,172 -627,27 -1046,548 -138,173 -225,326 -317,525 z"
   id="path18" />
  </g>
</svg>
