<?xml version="1.0" encoding="UTF-8" standalone="no"?>
<!-- Created with Inkscape (http://www.inkscape.org/) -->

<svg
   width="56.441254mm"
   height="76.77269mm"
   viewBox="0 0 56.441254 76.77269"
   version="1.1"
   id="svg2501"
   inkscape:version="1.1 (c4e8f9e, 2021-05-24)"
   sodipodi:docname="gilet.svg"
   xmlns:inkscape="http://www.inkscape.org/namespaces/inkscape"
   xmlns:sodipodi="http://sodipodi.sourceforge.net/DTD/sodipodi-0.dtd"
   xmlns="http://www.w3.org/2000/svg"
   xmlns:svg="http://www.w3.org/2000/svg">
  <sodipodi:namedview
     id="namedview2503"
     pagecolor="#ffffff"
     bordercolor="#666666"
     borderopacity="1.0"
     inkscape:pageshadow="2"
     inkscape:pageopacity="0.0"
     inkscape:pagecheckerboard="0"
     inkscape:document-units="mm"
     showgrid="false"
     inkscape:zoom="0.75455247"
     inkscape:cx="132.52889"
     inkscape:cy="463.18847"
     inkscape:window-width="1323"
     inkscape:window-height="1027"
     inkscape:window-x="254"
     inkscape:window-y="25"
     inkscape:window-maximized="0"
     inkscape:current-layer="layer1" />
  <defs
     id="defs2498" />
  <g
     inkscape:label="Calque 1"
     inkscape:groupmode="layer"
     id="layer1"
     transform="translate(-60.844308,-25.782487)">
    <g
       id="g2496"
       transform="matrix(0.50792706,0,0,0.47699824,38.571723,6.5556219)">
      <path
         style="fill:#ffff00;fill-opacity:1;stroke:#000000;stroke-width:1.365;stroke-linecap:butt;stroke-linejoin:miter;stroke-miterlimit:4;stroke-dasharray:none;stroke-opacity:1"
         d="m 80.999998,41.025974 -34.012986,10.870128 -1.051949,4.207793 -0.350649,4.207793 -1.051947,5.259739 v 4.558443 l 0.35065,5.961039 1.051946,8.415583 1.051949,8.415584 2.103895,8.064934 2.103898,7.01299 2.103896,11.57143 0.350649,5.96104 -0.350649,10.51948 -1.051949,10.51948 1.051949,1.05194 -1.402599,28.05195 1.753248,2.45455 -0.350649,8.06493 1.051948,3.5065 3.857141,2.45454 4.909093,3.15585 5.259739,2.80519 6.311688,1.05195 4.558443,1.05195 h 6.311688 l 6.662338,-1.05195 3.506494,-3.15584 1.402596,-2.45455 6.311691,-0.35065 1.4026,2.8052 5.61038,3.50649 5.61039,1.05195 5.96104,-0.35065 10.51948,-2.8052 5.96104,-2.45454 5.25974,-3.85715 2.45455,-4.20779 v -11.22078 l 1.75324,-1.05195 -1.40259,-27 1.40259,-0.35064 L 146.22078,135 l 0.35065,-4.20779 -0.35065,-8.76624 1.75324,-11.92208 2.1039,-7.71428 3.50649,-12.974026 0.35065,-17.532468 0.35065,-14.376622 -1.75325,-5.610392 -34.71428,-10.519479 -3.85714,0.7013 -3.5065,0.350649 -5.96103,0.350647 -8.766237,0.35065 -6.662338,-0.701297 h -3.857144 z"
         id="path901" />
      <path
         style="fill:#999999;stroke:none;stroke-width:0.264583px;stroke-linecap:butt;stroke-linejoin:miter;stroke-opacity:1"
         d="m 53.64935,125.53247 21.38961,1.75324 13.675325,0.7013 h 7.012988 l 22.792207,-0.7013 22.09091,-1.05194 5.25974,0.7013 0.35065,8.06493 h -8.41559 l -11.92207,0.35065 -18.93507,1.05195 -16.480519,0.35064 -20.337661,-0.70129 H 53.298701 Z"
         id="path1004"
         sodipodi:nodetypes="ccccccccccccccc" />
      <path
         style="fill:#999999;stroke:none;stroke-width:0.264583px;stroke-linecap:butt;stroke-linejoin:miter;stroke-opacity:1"
         d="m 52.948046,165.85714 23.844155,1.05194 13.675329,0.7013 h 7.01298 l 22.79221,-0.7013 22.09091,-1.05194 5.25974,0.7013 0.35065,8.06493 h -8.41559 l -11.92207,0.35065 -18.93507,1.05195 -16.48052,0.35064 -20.337659,-0.70129 H 51.896102 Z"
         id="path1004-5"
         sodipodi:nodetypes="ccccccccccccccc" />
      <path
         style="fill:#000000;stroke:#000000;stroke-width:0.264583px;stroke-linecap:butt;stroke-linejoin:miter;stroke-opacity:1"
         d="m 97.831168,102.74026 4.909092,0.35065 v 81 l -5.259742,-0.35065 z"
         id="path1002" />
      <path
         style="fill:none;stroke:#000000;stroke-width:1.465;stroke-linecap:butt;stroke-linejoin:miter;stroke-miterlimit:4;stroke-dasharray:none;stroke-opacity:1"
         d="m 102.74026,103.09091 0.7013,-9.467535 9.46753,-30.506492 4.90909,-21.74026 v 0"
         id="path1222" />
      <path
         style="fill:none;stroke:#000000;stroke-width:1.665;stroke-linecap:butt;stroke-linejoin:miter;stroke-miterlimit:4;stroke-dasharray:none;stroke-opacity:1"
         d="M 97.831168,102.74026 V 95.025973 L 94.457627,82.435752 83.805193,55.051946 80.999996,41.025974"
         id="path1224" />
      <path
         style="fill:none;stroke:#000000;stroke-width:1.065;stroke-linecap:butt;stroke-linejoin:miter;stroke-miterlimit:4;stroke-dasharray:none;stroke-opacity:1"
         d="m 97.480516,183.74026 -0.350647,9.81818 v 0"
         id="path1437" />
      <path
         style="fill:none;stroke:#000000;stroke-width:1.265;stroke-linecap:butt;stroke-linejoin:miter;stroke-miterlimit:4;stroke-dasharray:none;stroke-opacity:1"
         d="m 102.74026,184.09091 0.7013,9.11688"
         id="path1439" />
      <path
         style="fill:#999999;stroke:none;stroke-width:0.264583px;stroke-linecap:butt;stroke-linejoin:miter;stroke-opacity:1"
         d="m 131.14285,46.285714 -6.31168,82.402596 8.76623,-0.35065 4.55844,-79.948049 z"
         id="path1611"
         sodipodi:nodetypes="ccccc" />
      <path
         style="fill:#999999;stroke:none;stroke-width:0.264583px;stroke-linecap:butt;stroke-linejoin:miter;stroke-opacity:1"
         d="m 59.785711,48.389613 7.012994,78.545457 7.012977,0.35065 -5.610387,-81.350652 z"
         id="path1611-0"
         sodipodi:nodetypes="ccccc" />
      <g
         style="clip-rule:evenodd;fill-rule:evenodd;stroke-linejoin:round;stroke-miterlimit:2"
         id="g2236"
         transform="matrix(0.03601388,0,0,0.03601388,93.885381,49.981075)">
        <path
           style="clip-rule:evenodd;fill:#000000;fill-rule:evenodd;stroke:#000000;stroke-width:2.5;stroke-linejoin:round;stroke-miterlimit:2;stroke-dasharray:none;stroke-opacity:1;paint-order:markers fill stroke"
           id="circle2036"
           sodipodi:type="arc"
           sodipodi:cx="159.86551"
           sodipodi:cy="160.71889"
           sodipodi:rx="159.41988"
           sodipodi:ry="159.41988"
           sodipodi:start="1.5905225"
           sodipodi:end="4.7108576"
           sodipodi:open="true"
           sodipodi:arc-type="arc"
           d="M 156.72097,320.10775 A 159.41988,159.41988 0 0 1 0.45222989,159.2686 159.41988,159.41988 0 0 1 159.62138,1.2991982" />
        <path
           style="clip-rule:evenodd;fill:#ffffff;fill-rule:evenodd;stroke:#010101;stroke-width:2.5;stroke-linecap:round;stroke-linejoin:round;stroke-miterlimit:2;stroke-dasharray:none;stroke-opacity:1;paint-order:markers fill stroke"
           id="path2108"
           sodipodi:type="arc"
           sodipodi:cx="-160.13449"
           sodipodi:cy="-159.83449"
           sodipodi:rx="159.41988"
           sodipodi:ry="159.41988"
           sodipodi:start="1.5905225"
           sodipodi:end="4.7108576"
           sodipodi:open="true"
           sodipodi:arc-type="arc"
           transform="scale(-1)"
           d="M -163.27903,-0.44562769 A 159.41988,159.41988 0 0 1 -319.54777,-161.28477 159.41988,159.41988 0 0 1 -160.37862,-319.25418" />
        <circle
           style="clip-rule:evenodd;fill:#ffffff;fill-rule:evenodd;stroke:none;stroke-width:9.61168;stroke-linejoin:round;stroke-miterlimit:2;stroke-opacity:1"
           id="circle1898"
           cx="167.99254"
           cy="81.072128"
           r="80.097275" />
        <circle
           style="clip-rule:evenodd;fill:#000000;fill-rule:evenodd;stroke-width:9.61168;stroke-linejoin:round;stroke-miterlimit:2"
           id="path1816"
           cx="162.14781"
           cy="240.65408"
           r="80.097275" />
        <circle
           style="clip-rule:evenodd;fill:#ffffff;fill-rule:evenodd;stroke-width:5.3;stroke-linejoin:round;stroke-miterlimit:2"
           id="path1108"
           cx="160.73206"
           cy="239.58856"
           r="26.5" />
        <circle
           style="clip-rule:evenodd;fill:#000000;fill-rule:evenodd;stroke-width:5.3;stroke-linejoin:round;stroke-miterlimit:2"
           id="circle1190"
           cx="160.11197"
           cy="81.023773"
           r="26.5" />
        <path
           style="fill:none;stroke:#000000;stroke-width:0.891251;stroke-linecap:butt;stroke-linejoin:miter;stroke-miterlimit:2;stroke-dasharray:none;stroke-opacity:1"
           d="m 163.27903,0.44562556 -5.52387,0.3578712 -9.17493,1.06449464"
           id="path5354"
           sodipodi:nodetypes="ccc" />
      </g>
    </g>
  </g>
</svg>
